<?xml version="1.0" encoding="UTF-8" standalone="no"?>
<svg
   xmlns:dc="http://purl.org/dc/elements/1.1/"
   xmlns:cc="http://creativecommons.org/ns#"
   xmlns:rdf="http://www.w3.org/1999/02/22-rdf-syntax-ns#"
   xmlns:svg="http://www.w3.org/2000/svg"
   xmlns="http://www.w3.org/2000/svg"
   xmlns:sodipodi="http://sodipodi.sourceforge.net/DTD/sodipodi-0.dtd"
   xmlns:inkscape="http://www.inkscape.org/namespaces/inkscape"
   width="144.91983mm"
   height="89.130234mm"
   viewBox="0 0 144.91983 89.130234"
   version="1.1"
   id="svg6134"
   inkscape:version="1.0.1 (1.0.1+r73)"
   sodipodi:docname="subtomogram.svg">
  <defs
     id="defs6128">
    <rect
       x="33.035683"
       y="53.230629"
       width="62.510406"
       height="20.134327"
       id="rect7136" />
    <rect
       x="39.488777"
       y="61.052753"
       width="34.137486"
       height="11.472618"
       id="rect6825" />
    <rect
       x="64.928703"
       y="4.7498312"
       width="33.978535"
       height="19.822285"
       id="rect6762" />
    <rect
       x="64.928703"
       y="4.7498312"
       width="35.264286"
       height="19.909384"
       id="rect6821" />
  </defs>
  <sodipodi:namedview
     id="base"
     pagecolor="#505050"
     bordercolor="#666666"
     borderopacity="1.0"
     inkscape:pageopacity="0"
     inkscape:pageshadow="2"
     inkscape:zoom="1.4"
     inkscape:cx="338.85473"
     inkscape:cy="209.79729"
     inkscape:document-units="mm"
     inkscape:current-layer="layer1"
     inkscape:document-rotation="0"
     showgrid="false"
     inkscape:object-nodes="false"
     inkscape:snap-others="false"
     inkscape:snap-nodes="false"
     inkscape:snap-global="false"
     inkscape:window-width="2560"
     inkscape:window-height="1341"
     inkscape:window-x="0"
     inkscape:window-y="40"
     inkscape:window-maximized="1"
     fit-margin-top="0"
     fit-margin-left="0"
     fit-margin-right="0"
     fit-margin-bottom="0" />
  <metadata
     id="metadata6131">
    <rdf:RDF>
      <cc:Work
         rdf:about="">
        <dc:format>image/svg+xml</dc:format>
        <dc:type
           rdf:resource="http://purl.org/dc/dcmitype/StillImage" />
        <dc:title></dc:title>
      </cc:Work>
    </rdf:RDF>
  </metadata>
  <g
     inkscape:label="Layer 1"
     inkscape:groupmode="layer"
     id="layer1"
     transform="translate(-26.902751,1.3371451)">
    <path
       id="path6714"
       style="fill:#999999;fill-opacity:1;stroke:none;stroke-width:10.6076;stroke-linejoin:round;stroke-miterlimit:0.8;stroke-dasharray:none;stroke-opacity:1"
       d="m 374.19922,199.72461 c -91.73608,0.26006 -177.958,49.01501 -240.60938,132.0918 h 75.25782 c 49.00308,-50.26901 109.48086,-77.95676 172.75586,-75.85938 58.65594,1.94406 114.03292,29.29455 159.42187,75.85938 h 75.25 C 555.5763,251.33289 472.54575,202.76075 383.35742,199.85938 c -3.052,-0.0989 -6.10529,-0.14384 -9.1582,-0.13477 z"
       transform="scale(0.26458333)" />
    <path
       id="path6699"
       style="fill:#999999;fill-opacity:1;stroke:none;stroke-width:10.9606;stroke-linejoin:round;stroke-miterlimit:0.8;stroke-dasharray:none;stroke-opacity:1"
       d="m 374.75977,178.23828 c -106.10834,0.28175 -205.30536,57.48018 -273.08008,153.57813 h 76.12109 c 55.42588,-63.77232 128.22397,-99.72515 204.86524,-97.34571 71.7195,2.2264 138.846,37.77513 190.62304,97.34571 H 649.4082 C 583.62163,238.54815 487.95656,181.52417 384.53711,178.37305 c -3.25848,-0.0989 -6.51786,-0.14384 -9.77734,-0.13477 z"
       transform="scale(0.26458333)" />
    <path
       id="path6712"
       style="fill:#b2b2b2;fill-opacity:1;stroke:none;stroke-width:10.6636;stroke-linejoin:round;stroke-miterlimit:0.8;stroke-dasharray:none;stroke-opacity:1"
       d="m 374.71484,188.1875 c -99.56715,0.26966 -192.82359,53.59573 -257.93359,143.62891 h 74.58203 c 52.53738,-58.11092 120.04505,-90.62287 190.96875,-88.37696 66.17828,2.09542 128.29739,34.23178 177.25,88.37696 h 74.5625 c -63.16251,-87.3261 -153.04727,-140.4827 -250.00976,-143.4961 -3.13894,-0.0972 -6.28,-0.14173 -9.41993,-0.13281 z"
       transform="scale(0.26458333)" />
    <rect
       style="fill:none;fill-opacity:1;stroke:#020202;stroke-width:0.575671;stroke-linejoin:round;stroke-miterlimit:0.8;stroke-dasharray:1.72701, 0.575671;stroke-dashoffset:0;stroke-opacity:1"
       id="rect6737"
       width="47.54528"
       height="48.385963"
       x="97.559395"
       y="9.695384"
       transform="matrix(0.9813688,0.1921335,-0.19403881,0.98099385,0,0)" />
    <path
       style="fill:none;stroke:#2a4059;stroke-width:1;stroke-linecap:butt;stroke-linejoin:miter;stroke-miterlimit:4;stroke-dasharray:none;stroke-opacity:0.501572"
       d="M 96.509688,16.345039 84.335181,75.987528"
       id="path6739"
       sodipodi:nodetypes="cc" />
    <path
       style="fill:none;stroke:#2a4059;stroke-width:1;stroke-linecap:butt;stroke-linejoin:miter;stroke-miterlimit:4;stroke-dasharray:none;stroke-opacity:0.501572"
       d="m 84.444841,15.481641 -0.10966,60.505887"
       id="path6741"
       sodipodi:nodetypes="cc" />
    <path
       style="fill:none;stroke:#141e2a;stroke-width:3;stroke-linecap:butt;stroke-linejoin:miter;stroke-miterlimit:4;stroke-dasharray:1.5, 1.5;stroke-dashoffset:2.7;stroke-opacity:0.501572"
       d="m 83.125285,19.160985 c 4.870342,0.11907 8.87817,0.502897 13.824134,1.39905"
       id="path6758"
       sodipodi:nodetypes="cc" />
    <g
       aria-label="subtomogram orientation
(fixed)"
       transform="translate(8.9970628,-6.5777984)"
       id="text6760"
       style="font-style:normal;font-weight:normal;font-size:4.58611px;line-height:1.25;font-family:sans-serif;letter-spacing:0px;word-spacing:0px;white-space:pre;shape-inside:url(#rect6762);fill:#000000;fill-opacity:1;stroke:none">
      <path
         d="m 67.86181,6.3735009 v 0.3896402 q -0.174666,-0.089573 -0.362769,-0.1343587 -0.188102,-0.044786 -0.38964,-0.044786 -0.306785,0 -0.461298,0.094051 -0.152273,0.094051 -0.152273,0.2821532 0,0.143316 0.109726,0.2261705 0.109726,0.080615 0.441145,0.1545125 l 0.141076,0.03135 q 0.438905,0.094051 0.622529,0.266478 0.185863,0.1701877 0.185863,0.4769734 0,0.3493326 -0.277675,0.55311 -0.275435,0.2037773 -0.759127,0.2037773 -0.201538,0 -0.42099,-0.040308 -0.217213,-0.038068 -0.459059,-0.1164442 V 8.2903516 q 0.22841,0.1186835 0.450102,0.1791449 0.221691,0.058222 0.438905,0.058222 0.29111,0 0.447862,-0.09853 0.156752,-0.100769 0.156752,-0.2821532 0,-0.1679484 -0.114205,-0.2575209 -0.111966,-0.089572 -0.494888,-0.172427 L 66.82053,7.6834982 Q 66.437608,7.602883 66.26742,7.4371739 66.097232,7.2692255 66.097232,6.978115 q 0,-0.3538112 0.250803,-0.546392 0.250803,-0.1925808 0.712101,-0.1925808 0.22841,0 0.429948,0.03359 0.201538,0.03359 0.371726,0.1007687 z"
         style="text-align:center;text-anchor:middle"
         id="path6975" />
      <path
         d="M 68.611979,7.8178569 V 6.2996036 h 0.412034 v 1.5025781 q 0,0.3560505 0.138837,0.5351955 0.138837,0.1769056 0.416512,0.1769056 0.333657,0 0.526238,-0.2127346 0.19482,-0.2127346 0.19482,-0.5799817 V 6.2996036 h 0.412034 v 2.508029 H 70.30042 V 8.422471 q -0.150033,0.2284098 -0.349332,0.3403754 -0.19706,0.1097262 -0.459059,0.1097262 -0.432187,0 -0.656118,-0.2687174 -0.223932,-0.2687174 -0.223932,-0.7859983 z m 1.036802,-1.5787147 z"
         style="text-align:center;text-anchor:middle"
         id="path6977" />
      <path
         d="m 73.366038,7.5558574 q 0,-0.4545802 -0.188102,-0.7121011 -0.185863,-0.2597601 -0.512802,-0.2597601 -0.32694,0 -0.515042,0.2597601 -0.185863,0.2575209 -0.185863,0.7121011 0,0.4545803 0.185863,0.7143404 0.188102,0.2575208 0.515042,0.2575208 0.326939,0 0.512802,-0.2575208 0.188102,-0.2597601 0.188102,-0.7143404 z M 71.964229,6.6802866 q 0.12988,-0.2239312 0.326939,-0.3314181 0.199299,-0.1097263 0.474735,-0.1097263 0.456819,0 0.741212,0.3627685 0.286632,0.3627685 0.286632,0.9539467 0,0.5911783 -0.286632,0.9539467 -0.284393,0.3627685 -0.741212,0.3627685 -0.275436,0 -0.474735,-0.1074869 Q 72.094109,8.6553594 71.964229,8.4314282 V 8.8076326 H 71.549956 V 5.3232638 h 0.414273 z"
         style="text-align:center;text-anchor:middle"
         id="path6979" />
      <path
         d="m 74.884291,5.5875025 v 0.7121011 h 0.848699 v 0.3202216 h -0.848699 v 1.3615014 q 0,0.3067857 0.08285,0.3941188 0.08509,0.087333 0.342615,0.087333 h 0.42323 v 0.344854 h -0.42323 q -0.476973,0 -0.658357,-0.1769056 Q 74.470018,8.451582 74.470018,7.9813266 V 6.6198252 H 74.167711 V 6.2996036 h 0.302307 V 5.5875025 Z"
         style="text-align:center;text-anchor:middle"
         id="path6981" />
      <path
         d="m 77.249005,6.5884748 q -0.331418,0 -0.523999,0.2597602 -0.192581,0.2575208 -0.192581,0.7076224 0,0.4501016 0.190342,0.7098618 0.19258,0.2575208 0.526238,0.2575208 0.329179,0 0.521759,-0.2597601 0.192581,-0.2597602 0.192581,-0.7076225 0,-0.445623 -0.192581,-0.7053831 -0.19258,-0.2619995 -0.521759,-0.2619995 z m 0,-0.3493326 q 0.537435,0 0.84422,0.3493326 0.306786,0.3493326 0.306786,0.9673826 0,0.6158107 -0.306786,0.9673826 -0.306785,0.3493326 -0.84422,0.3493326 -0.539674,0 -0.84646,-0.3493326 -0.304546,-0.3515719 -0.304546,-0.9673826 0,-0.61805 0.304546,-0.9673826 0.306786,-0.3493326 0.84646,-0.3493326 z"
         style="text-align:center;text-anchor:middle"
         id="path6983" />
      <path
         d="m 81.033441,6.7810556 q 0.154512,-0.2776746 0.369486,-0.409794 0.214974,-0.1321194 0.506085,-0.1321194 0.391879,0 0.604614,0.2754353 0.212734,0.273196 0.212734,0.7792805 V 8.8076326 H 82.312088 V 7.3072938 q 0,-0.3605291 -0.127641,-0.5351954 -0.127641,-0.1746663 -0.38964,-0.1746663 -0.320222,0 -0.506085,0.2127346 -0.185863,0.2127346 -0.185863,0.5799817 V 8.8076326 H 80.688587 V 7.3072938 q 0,-0.3627685 -0.127641,-0.5351954 -0.127641,-0.1746663 -0.394119,-0.1746663 -0.315743,0 -0.501606,0.2149739 -0.185862,0.2127346 -0.185862,0.5777424 v 1.4174842 h -0.414273 v -2.508029 h 0.414273 v 0.3896402 q 0.141076,-0.2306491 0.338136,-0.3403753 0.197059,-0.1097263 0.468016,-0.1097263 0.273196,0 0.463537,0.1388373 0.192581,0.1388373 0.284393,0.4030761 z"
         style="text-align:center;text-anchor:middle"
         id="path6985" />
      <path
         d="m 84.522288,6.5884748 q -0.331418,0 -0.523999,0.2597602 -0.192581,0.2575208 -0.192581,0.7076224 0,0.4501016 0.190342,0.7098618 0.19258,0.2575208 0.526238,0.2575208 0.329179,0 0.521759,-0.2597601 0.192581,-0.2597602 0.192581,-0.7076225 0,-0.445623 -0.192581,-0.7053831 -0.19258,-0.2619995 -0.521759,-0.2619995 z m 0,-0.3493326 q 0.537435,0 0.84422,0.3493326 0.306786,0.3493326 0.306786,0.9673826 0,0.6158107 -0.306786,0.9673826 -0.306785,0.3493326 -0.84422,0.3493326 -0.539674,0 -0.84646,-0.3493326 -0.304546,-0.3515719 -0.304546,-0.9673826 0,-0.61805 0.304546,-0.9673826 0.306786,-0.3493326 0.84646,-0.3493326 z"
         style="text-align:center;text-anchor:middle"
         id="path6987" />
      <path
         d="m 88.004419,7.524507 q 0,-0.4478623 -0.185863,-0.6941865 -0.183624,-0.2463243 -0.517281,-0.2463243 -0.331418,0 -0.517281,0.2463243 -0.183624,0.2463242 -0.183624,0.6941865 0,0.4456231 0.183624,0.6919473 0.185863,0.2463243 0.517281,0.2463243 0.333657,0 0.517281,-0.2463243 0.185863,-0.2463242 0.185863,-0.6919473 z m 0.412033,0.9718613 q 0,0.6404431 -0.284393,0.9517074 -0.284392,0.3135036 -0.871092,0.3135036 -0.217213,0 -0.409794,-0.03359 -0.192581,-0.03135 -0.373965,-0.09853 V 9.2286232 q 0.181384,0.09853 0.35829,0.1455552 0.176906,0.047026 0.360529,0.047026 0.405316,0 0.606854,-0.2127346 0.201538,-0.2104953 0.201538,-0.6382038 V 8.3664882 q -0.127641,0.2216918 -0.32694,0.3314181 -0.199299,0.1097263 -0.476973,0.1097263 -0.461298,0 -0.743452,-0.3515719 -0.282153,-0.351572 -0.282153,-0.9315537 0,-0.582221 0.282153,-0.9337929 0.282154,-0.3515719 0.743452,-0.3515719 0.277674,0 0.476973,0.1097263 0.199299,0.1097262 0.32694,0.3314181 v -0.380683 h 0.412033 z"
         style="text-align:center;text-anchor:middle"
         id="path6989" />
      <path
         d="m 90.718463,6.6847652 q -0.06942,-0.040308 -0.152273,-0.058222 -0.08062,-0.020154 -0.179145,-0.020154 -0.349332,0 -0.537434,0.2284098 -0.185863,0.2261705 -0.185863,0.6516397 v 1.3211938 h -0.414273 v -2.508029 h 0.414273 v 0.3896402 q 0.12988,-0.2284098 0.338136,-0.338136 0.208256,-0.1119656 0.506084,-0.1119656 0.04255,0 0.09405,0.00672 0.0515,0.00448 0.114205,0.015675 z"
         style="text-align:center;text-anchor:middle"
         id="path6991" />
      <path
         d="m 92.29494,7.5469002 q -0.499366,0 -0.691947,0.1142049 -0.192581,0.1142048 -0.192581,0.3896402 0,0.2194525 0.143316,0.3493326 0.145555,0.1276407 0.394119,0.1276407 0.342614,0 0.548631,-0.2418456 0.208256,-0.244085 0.208256,-0.6471611 v -0.091812 z m 0.821827,-0.1701877 v 1.4309201 h -0.412033 v -0.380683 q -0.141076,0.2284098 -0.351572,0.3381361 -0.210495,0.1074869 -0.515041,0.1074869 -0.385162,0 -0.613572,-0.2149739 -0.22617,-0.2172132 -0.22617,-0.5799817 0,-0.4232299 0.282153,-0.6382038 0.284393,-0.2149739 0.84646,-0.2149739 h 0.577742 v -0.040308 q 0,-0.2843926 -0.188102,-0.4389051 -0.185863,-0.1567518 -0.523999,-0.1567518 -0.214974,0 -0.418751,0.051504 -0.203778,0.051504 -0.39188,0.1545125 v -0.380683 q 0.226171,-0.087333 0.438905,-0.1298801 0.212735,-0.044786 0.414273,-0.044786 0.544153,0 0.81287,0.2821533 0.268717,0.2821532 0.268717,0.8554174 z"
         style="text-align:center;text-anchor:middle"
         id="path6993" />
      <path
         d="m 95.920385,6.7810556 q 0.154512,-0.2776746 0.369486,-0.409794 0.214974,-0.1321194 0.506084,-0.1321194 0.39188,0 0.604615,0.2754353 0.212734,0.273196 0.212734,0.7792805 V 8.8076326 H 97.199032 V 7.3072938 q 0,-0.3605291 -0.127641,-0.5351954 -0.127641,-0.1746663 -0.38964,-0.1746663 -0.320222,0 -0.506085,0.2127346 -0.185863,0.2127346 -0.185863,0.5799817 V 8.8076326 H 95.575531 V 7.3072938 q 0,-0.3627685 -0.127641,-0.5351954 -0.127641,-0.1746663 -0.394119,-0.1746663 -0.315743,0 -0.501606,0.2149739 -0.185863,0.2127346 -0.185863,0.5777424 V 8.8076326 H 93.95203 v -2.508029 h 0.414272 v 0.3896402 q 0.141077,-0.2306491 0.338136,-0.3403753 0.19706,-0.1097263 0.468017,-0.1097263 0.273196,0 0.463537,0.1388373 0.192581,0.1388373 0.284393,0.4030761 z"
         style="text-align:center;text-anchor:middle"
         id="path6995" />
      <path
         d="m 70.772915,12.321112 q -0.331418,0 -0.523999,0.25976 -0.192581,0.257521 -0.192581,0.707623 0,0.450101 0.190342,0.709862 0.192581,0.25752 0.526238,0.25752 0.329179,0 0.52176,-0.25976 0.19258,-0.25976 0.19258,-0.707622 0,-0.445623 -0.19258,-0.705383 -0.192581,-0.262 -0.52176,-0.262 z m 0,-0.349332 q 0.537435,0 0.84422,0.349332 0.306786,0.349333 0.306786,0.967383 0,0.61581 -0.306786,0.967382 -0.306785,0.349333 -0.84422,0.349333 -0.539674,0 -0.84646,-0.349333 -0.304546,-0.351572 -0.304546,-0.967382 0,-0.61805 0.304546,-0.967383 0.306786,-0.349332 0.84646,-0.349332 z"
         style="text-align:center;text-anchor:middle"
         id="path6997" />
      <path
         d="m 74.057985,12.417403 q -0.06942,-0.04031 -0.152273,-0.05822 -0.08061,-0.02015 -0.179145,-0.02015 -0.349333,0 -0.537435,0.228409 -0.185863,0.226171 -0.185863,0.65164 v 1.321194 h -0.414272 v -2.508029 h 0.414272 v 0.38964 q 0.129881,-0.22841 0.338136,-0.338136 0.208256,-0.111965 0.506085,-0.111965 0.04255,0 0.09405,0.0067 0.0515,0.0045 0.114205,0.01567 z"
         style="text-align:center;text-anchor:middle"
         id="path6999" />
      <path
         d="m 74.494651,12.032241 h 0.412033 v 2.508029 h -0.412033 z m 0,-0.97634 h 0.412033 v 0.52176 h -0.412033 z"
         style="text-align:center;text-anchor:middle"
         id="path7001" />
      <path
         d="m 77.91184,13.183247 v 0.201538 h -1.894457 q 0.02687,0.425469 0.255281,0.649401 0.230649,0.221691 0.640443,0.221691 0.237367,0 0.459059,-0.05822 0.223931,-0.05822 0.443384,-0.174666 v 0.38964 q -0.221692,0.09405 -0.45458,0.143316 -0.232889,0.04927 -0.472495,0.04927 -0.600136,0 -0.951707,-0.349333 -0.349333,-0.349332 -0.349333,-0.944989 0,-0.615811 0.331418,-0.97634 0.333658,-0.362768 0.897964,-0.362768 0.506084,0 0.799434,0.326939 0.295589,0.3247 0.295589,0.884528 z m -0.412033,-0.120923 q -0.0045,-0.338136 -0.190341,-0.539674 -0.183624,-0.201538 -0.48817,-0.201538 -0.344854,0 -0.55311,0.19482 -0.206017,0.19482 -0.237367,0.548632 z"
         style="text-align:center;text-anchor:middle"
         id="path7003" />
      <path
         d="m 80.672912,13.026495 v 1.513775 h -0.412034 v -1.500339 q 0,-0.35605 -0.138837,-0.532956 -0.138837,-0.176906 -0.416512,-0.176906 -0.333657,0 -0.526238,0.212735 -0.192581,0.212735 -0.192581,0.579982 v 1.417484 h -0.414273 v -2.508029 h 0.414273 v 0.38964 q 0.147795,-0.22617 0.347093,-0.338136 0.201538,-0.111965 0.463538,-0.111965 0.432187,0 0.653879,0.268717 0.221692,0.266478 0.221692,0.785998 z"
         style="text-align:center;text-anchor:middle"
         id="path7005" />
      <path
         d="m 81.906772,11.32014 v 0.712101 h 0.8487 v 0.320222 h -0.8487 v 1.361501 q 0,0.306786 0.08285,0.394119 0.08509,0.08733 0.342615,0.08733 h 0.42323 v 0.344854 h -0.42323 q -0.476974,0 -0.658358,-0.176906 Q 81.4925,14.184219 81.4925,13.713964 V 12.352463 H 81.190193 V 12.032241 H 81.4925 V 11.32014 Z"
         style="text-align:center;text-anchor:middle"
         id="path7007" />
      <path
         d="m 84.439434,13.279538 q -0.499367,0 -0.691947,0.114204 -0.192581,0.114205 -0.192581,0.389641 0,0.219452 0.143316,0.349332 0.145555,0.127641 0.394119,0.127641 0.342614,0 0.548631,-0.241846 0.208256,-0.244085 0.208256,-0.647161 v -0.09181 z m 0.821827,-0.170188 v 1.43092 h -0.412033 v -0.380683 q -0.141077,0.22841 -0.351572,0.338136 -0.210495,0.107487 -0.515042,0.107487 -0.385161,0 -0.613571,-0.214974 -0.226171,-0.217213 -0.226171,-0.579982 0,-0.423229 0.282154,-0.638203 0.284392,-0.214974 0.846459,-0.214974 h 0.577743 v -0.04031 q 0,-0.284392 -0.188102,-0.438905 -0.185863,-0.156752 -0.523999,-0.156752 -0.214974,0 -0.418751,0.0515 -0.203778,0.0515 -0.39188,0.154513 V 12.14644 q 0.22617,-0.08733 0.438905,-0.12988 0.212735,-0.04479 0.414273,-0.04479 0.544152,0 0.81287,0.282153 0.268717,0.282153 0.268717,0.855417 z"
         style="text-align:center;text-anchor:middle"
         id="path7009" />
      <path
         d="m 86.519754,11.32014 v 0.712101 h 0.848699 v 0.320222 h -0.848699 v 1.361501 q 0,0.306786 0.08285,0.394119 0.08509,0.08733 0.342614,0.08733 h 0.42323 v 0.344854 h -0.42323 q -0.476973,0 -0.658357,-0.176906 -0.181384,-0.179145 -0.181384,-0.6494 V 12.35246 H 85.80317 v -0.320222 h 0.302307 V 11.32014 Z"
         style="text-align:center;text-anchor:middle"
         id="path7011" />
      <path
         d="m 87.912605,12.032241 h 0.412033 v 2.508029 h -0.412033 z m 0,-0.97634 h 0.412033 v 0.52176 h -0.412033 z"
         style="text-align:center;text-anchor:middle"
         id="path7013" />
      <path
         d="m 90.156397,12.321112 q -0.331418,0 -0.523999,0.25976 -0.192581,0.257521 -0.192581,0.707623 0,0.450101 0.190342,0.709862 0.192581,0.25752 0.526238,0.25752 0.329179,0 0.52176,-0.25976 0.19258,-0.25976 0.19258,-0.707622 0,-0.445623 -0.19258,-0.705383 -0.192581,-0.262 -0.52176,-0.262 z m 0,-0.349332 q 0.537435,0 0.84422,0.349332 0.306786,0.349333 0.306786,0.967383 0,0.61581 -0.306786,0.967382 -0.306785,0.349333 -0.84422,0.349333 -0.539674,0 -0.84646,-0.349333 -0.304546,-0.351572 -0.304546,-0.967382 0,-0.61805 0.304546,-0.967383 0.306786,-0.349332 0.84646,-0.349332 z"
         style="text-align:center;text-anchor:middle"
         id="path7015" />
      <path
         d="m 94.072952,13.026495 v 1.513775 h -0.412033 v -1.500339 q 0,-0.35605 -0.138837,-0.532956 -0.138838,-0.176906 -0.416512,-0.176906 -0.333658,0 -0.526238,0.212735 -0.192581,0.212735 -0.192581,0.579982 v 1.417484 h -0.414273 v -2.508029 h 0.414273 v 0.38964 q 0.147794,-0.22617 0.347093,-0.338136 0.201538,-0.111965 0.463538,-0.111965 0.432187,0 0.653878,0.268717 0.221692,0.266478 0.221692,0.785998 z"
         style="text-align:center;text-anchor:middle"
         id="path7017" />
      <path
         d="m 75.950203,16.793017 q -0.300067,0.515042 -0.445623,1.018887 -0.145555,0.503845 -0.145555,1.021126 0,0.517281 0.145555,1.025605 0.147795,0.506084 0.445623,1.018887 h -0.358289 q -0.335897,-0.526239 -0.503846,-1.034562 -0.165709,-0.508324 -0.165709,-1.00993 0,-0.499366 0.165709,-1.005451 0.165709,-0.506084 0.503846,-1.034562 z"
         style="text-align:center;text-anchor:middle"
         id="path7019" />
      <path
         d="m 78.778454,17.764878 v 2.508029 H 78.364181 V 18.0851 h -1.130852 v 2.187807 H 76.819056 V 18.0851 h -0.394119 v -0.320222 h 0.394119 v -0.174666 q 0,-0.409794 0.192581,-0.604614 0.19482,-0.197059 0.595657,-0.197059 h 0.414273 v 0.342614 h -0.394119 q -0.221692,0 -0.309025,0.08957 -0.08509,0.08957 -0.08509,0.322461 v 0.221691 z m -0.414273,-0.971861 h 0.414273 v 0.52176 h -0.414273 z"
         style="text-align:center;text-anchor:middle"
         id="path7021" />
      <path
         d="m 81.729867,17.764878 -0.906922,1.220425 0.953947,1.287604 h -0.48593 L 80.560946,19.28761 79.83093,20.272907 H 79.345 l 0.9741,-1.312236 -0.891246,-1.195793 h 0.485931 l 0.665076,0.893486 0.665075,-0.893486 z"
         style="text-align:center;text-anchor:middle"
         id="path7023" />
      <path
         d="m 84.361058,18.915885 v 0.201538 H 82.4666 q 0.02687,0.425469 0.255282,0.6494 0.230649,0.221692 0.640443,0.221692 0.237367,0 0.459059,-0.05822 0.223931,-0.05822 0.443383,-0.174667 v 0.389641 q -0.221691,0.09405 -0.45458,0.143316 -0.232888,0.04926 -0.472495,0.04926 -0.600135,0 -0.951707,-0.349332 -0.349333,-0.349333 -0.349333,-0.94499 0,-0.61581 0.331419,-0.97634 0.333657,-0.362768 0.897963,-0.362768 0.506085,0 0.799435,0.32694 0.295589,0.3247 0.295589,0.884528 z m -0.412034,-0.120923 q -0.0045,-0.338136 -0.190341,-0.539674 -0.183624,-0.201538 -0.48817,-0.201538 -0.344854,0 -0.55311,0.19482 -0.206017,0.19482 -0.237367,0.548631 z"
         style="text-align:center;text-anchor:middle"
         id="path7025" />
      <path
         d="m 86.687703,18.145561 v -1.357022 h 0.412033 v 3.484368 h -0.412033 v -0.376204 q -0.12988,0.223931 -0.329179,0.333657 -0.19706,0.107487 -0.474734,0.107487 -0.45458,0 -0.741212,-0.362768 -0.284393,-0.362769 -0.284393,-0.953947 0,-0.591178 0.284393,-0.953947 0.286632,-0.362768 0.741212,-0.362768 0.277674,0 0.474734,0.109726 0.199299,0.107487 0.329179,0.331418 z m -1.404049,0.875571 q 0,0.45458 0.185863,0.714341 0.188102,0.25752 0.515042,0.25752 0.326939,0 0.515042,-0.25752 0.188102,-0.259761 0.188102,-0.714341 0,-0.45458 -0.188102,-0.712101 -0.188103,-0.25976 -0.515042,-0.25976 -0.32694,0 -0.515042,0.25976 -0.185863,0.257521 -0.185863,0.712101 z"
         style="text-align:center;text-anchor:middle"
         id="path7027" />
      <path
         d="m 87.883495,16.793017 h 0.35829 q 0.335897,0.528478 0.501606,1.034562 0.167948,0.506085 0.167948,1.005451 0,0.501606 -0.167948,1.00993 -0.165709,0.508323 -0.501606,1.034562 h -0.35829 q 0.297829,-0.512803 0.443384,-1.018887 0.147794,-0.508324 0.147794,-1.025605 0,-0.517281 -0.147794,-1.021126 -0.145555,-0.503845 -0.443384,-1.018887 z"
         style="text-align:center;text-anchor:middle"
         id="path7029" />
    </g>
    <g
       id="g6807"
       transform="rotate(22.607482,116.36048,54.903679)">
      <path
         style="fill:none;stroke:#075e47;stroke-width:4;stroke-linecap:round;stroke-linejoin:bevel;stroke-miterlimit:4;stroke-dasharray:none;stroke-opacity:1"
         d="m 105.95201,70.558018 c 3.20863,-6.482895 -0.75032,-5.262554 -1.00537,-8.083127 -4.47875,-2.644226 3.57483,-0.644957 3.77431,-2.703905 -3.76599,-6.59775 -1.64798,-2.676883 -2.47744,-8.114238 0.38992,-5.443164 1.95196,2.646858 3.97711,-5.973993 1.00707,-0.159211 7.2567,1.047441 6.68943,1.900477 -6.15757,9.25955 -7.07181,3.089658 -6.4813,4.682762 1.1793,3.181571 11.15839,3.360446 11.15839,6.734592 2.19005,9.490694 5.14523,-4.545026 4.61132,-2.814052 -7.76127,-3.967963 -8.4929,2.953364 -9.58619,4.858518 -3.58686,5.970429 6.88324,12.068619 -1.33997,12.087791 -2.92925,-0.03311 -4.04773,-2.47043 -4.1969,-4.574387 3.1958,-7.009045 -0.59722,-3.847965 0.60909,-6.605598 1.82204,-3.776154 1.37498,-4.631982 3.59794,-7.412419 2.93776,-3.55579 5.58996,-6.359574 6.8972,-6.229196 3.07267,-0.203775 1.69471,8.947845 7.14824,-1.016435"
         id="path6794"
         sodipodi:nodetypes="cccccssccccccccc" />
      <path
         style="fill:none;stroke:#031e17;stroke-width:4;stroke-linecap:round;stroke-linejoin:bevel;stroke-miterlimit:4;stroke-dasharray:4, 4;stroke-dashoffset:2;stroke-opacity:1"
         d="m 105.95201,70.558018 c 3.20863,-6.482895 -0.75032,-5.262554 -1.00537,-8.083127 -4.47875,-2.644226 3.57483,-0.644957 3.77431,-2.703905 -3.76599,-6.59775 -1.64798,-2.676883 -2.47744,-8.114238 0.38992,-5.443164 1.95196,2.646858 3.97711,-5.973993 1.00707,-0.159211 7.2567,1.047441 6.68943,1.900477 -6.15757,9.25955 -7.07181,3.089658 -6.4813,4.682762 1.1793,3.181571 11.15839,3.360446 11.15839,6.734592 2.19005,9.490694 5.14523,-4.545026 4.61132,-2.814052 -7.76127,-3.967963 -8.4929,2.953364 -9.58619,4.858518 -3.58686,5.970429 6.88324,12.068619 -1.33997,12.087791 -2.92925,-0.03311 -4.04773,-2.47043 -4.1969,-4.574387 3.1958,-7.009045 -0.59722,-3.847965 0.60909,-6.605598 1.82204,-3.776154 1.37498,-4.631982 3.59794,-7.412419 2.93776,-3.55579 5.58996,-6.359574 6.8972,-6.229196 3.07267,-0.203775 1.69471,8.947845 7.14824,-1.016435"
         id="path6802"
         sodipodi:nodetypes="cccccssccccccccc" />
      <path
         style="fill:none;stroke:#053c2e;stroke-width:4;stroke-linecap:round;stroke-linejoin:bevel;stroke-miterlimit:4;stroke-dasharray:4, 8;stroke-dashoffset:0;stroke-opacity:1"
         d="m 105.95201,70.558018 c 3.20863,-6.482895 -0.75032,-5.262554 -1.00537,-8.083127 -4.47875,-2.644226 3.57483,-0.644957 3.77431,-2.703905 -3.76599,-6.59775 -1.64798,-2.676883 -2.47744,-8.114238 0.38992,-5.443164 1.95196,2.646858 3.97711,-5.973993 1.00707,-0.159211 7.2567,1.047441 6.68943,1.900477 -6.15757,9.25955 -7.07181,3.089658 -6.4813,4.682762 1.1793,3.181571 11.15839,3.360446 11.15839,6.734592 2.19005,9.490694 5.14523,-4.545026 4.61132,-2.814052 -7.76127,-3.967963 -8.4929,2.953364 -9.58619,4.858518 -3.58686,5.970429 6.88324,12.068619 -1.33997,12.087791 -2.92925,-0.03311 -4.04773,-2.47043 -4.1969,-4.574387 3.1958,-7.009045 -0.59722,-3.847965 0.60909,-6.605598 1.82204,-3.776154 1.37498,-4.631982 3.59794,-7.412419 2.93776,-3.55579 5.58996,-6.359574 6.8972,-6.229196 3.07267,-0.203775 1.69471,8.947845 7.14824,-1.016435"
         id="path6800"
         sodipodi:nodetypes="cccccssccccccccc" />
    </g>
    <path
       style="fill:none;stroke:#2a4059;stroke-width:1;stroke-linecap:butt;stroke-linejoin:miter;stroke-miterlimit:4;stroke-dasharray:none;stroke-opacity:0.501572"
       d="M 132.35994,23.016898 112.4899,58.268951"
       id="path6811"
       sodipodi:nodetypes="cc" />
    <path
       style="fill:none;stroke:#2a4059;stroke-width:1;stroke-linecap:butt;stroke-linejoin:miter;stroke-miterlimit:4;stroke-dasharray:none;stroke-opacity:0.501572"
       d="M 120.26359,19.901999 112.5044,58.235635"
       id="path6813"
       sodipodi:nodetypes="cc" />
    <path
       style="fill:none;stroke:#141e2a;stroke-width:3;stroke-linecap:butt;stroke-linejoin:miter;stroke-miterlimit:4;stroke-dasharray:1.5, 1.5;stroke-dashoffset:8.7;stroke-opacity:0.501572"
       d="m 118.15888,23.401704 c 4.7554,1.058544 8.61338,2.210074 13.29272,4.045657"
       id="path6815"
       sodipodi:nodetypes="cc" />
    <g
       aria-label="particle
 orientation
(constrained)"
       transform="translate(47.182081,-2.1410417)"
       id="text6819"
       style="font-style:normal;font-weight:normal;font-size:4.58611px;line-height:1.25;font-family:sans-serif;letter-spacing:0px;word-spacing:0px;white-space:pre;shape-inside:url(#rect6821);fill:#000000;fill-opacity:1;stroke:none">
      <path
         d="M 74.738632,8.4314282 V 9.7615793 H 74.324359 V 6.2996036 h 0.414273 v 0.380683 q 0.12988,-0.2239312 0.326939,-0.3314181 0.199299,-0.1097263 0.474734,-0.1097263 0.45682,0 0.741212,0.3627685 0.286632,0.3627685 0.286632,0.9539467 0,0.5911783 -0.286632,0.9539467 -0.284392,0.3627685 -0.741212,0.3627685 -0.275435,0 -0.474734,-0.1074869 -0.197059,-0.1097263 -0.326939,-0.3336575 z m 1.401809,-0.8755708 q 0,-0.4545802 -0.188103,-0.7121011 -0.185862,-0.2597601 -0.512802,-0.2597601 -0.326939,0 -0.515042,0.2597601 -0.185862,0.2575209 -0.185862,0.7121011 0,0.4545803 0.185862,0.7143404 0.188103,0.2575208 0.515042,0.2575208 0.32694,0 0.512802,-0.2575208 0.188103,-0.2597601 0.188103,-0.7143404 z"
         style="text-align:center;text-anchor:middle"
         id="path7032" />
      <path
         d="m 78.390949,7.5469002 q -0.499367,0 -0.691947,0.1142049 -0.192581,0.1142048 -0.192581,0.3896402 0,0.2194525 0.143316,0.3493326 0.145555,0.1276407 0.394119,0.1276407 0.342614,0 0.548631,-0.2418456 0.208256,-0.244085 0.208256,-0.6471611 v -0.091812 z m 0.821827,-0.1701877 v 1.4309201 h -0.412033 v -0.380683 q -0.141077,0.2284098 -0.351572,0.3381361 -0.210495,0.1074869 -0.515042,0.1074869 -0.385161,0 -0.613571,-0.2149739 -0.226171,-0.2172132 -0.226171,-0.5799817 0,-0.4232299 0.282154,-0.6382038 Q 77.660933,7.2244393 78.223,7.2244393 h 0.577743 v -0.040308 q 0,-0.2843926 -0.188102,-0.4389051 -0.185863,-0.1567518 -0.523999,-0.1567518 -0.214974,0 -0.418752,0.051504 -0.203777,0.051504 -0.391879,0.1545125 v -0.380683 q 0.22617,-0.087333 0.438905,-0.1298801 0.212735,-0.044786 0.414273,-0.044786 0.544152,0 0.81287,0.2821533 0.268717,0.2821532 0.268717,0.8554174 z"
         style="text-align:center;text-anchor:middle"
         id="path7034" />
      <path
         d="m 81.517028,6.6847652 q -0.06942,-0.040308 -0.152273,-0.058222 -0.08062,-0.020154 -0.179145,-0.020154 -0.349333,0 -0.537435,0.2284098 -0.185863,0.2261705 -0.185863,0.6516397 v 1.3211938 h -0.414273 v -2.508029 h 0.414273 v 0.3896402 q 0.12988,-0.2284098 0.338136,-0.338136 0.208256,-0.1119656 0.506084,-0.1119656 0.04255,0 0.09405,0.00672 0.0515,0.00448 0.114204,0.015675 z"
         style="text-align:center;text-anchor:middle"
         id="path7036" />
      <path
         d="m 82.361248,5.5875025 v 0.7121011 h 0.848699 v 0.3202216 h -0.848699 v 1.3615014 q 0,0.3067857 0.08285,0.3941188 0.08509,0.087333 0.342614,0.087333 h 0.42323 v 0.344854 h -0.42323 q -0.476973,0 -0.658357,-0.1769056 Q 81.946976,8.451582 81.946976,7.9813266 V 6.6198252 H 81.644668 V 6.2996036 h 0.302308 V 5.5875025 Z"
         style="text-align:center;text-anchor:middle"
         id="path7038" />
      <path
         d="m 83.7541,6.2996036 h 0.412034 v 2.508029 H 83.7541 Z m 0,-0.9763398 h 0.412034 V 5.8450234 H 83.7541 Z"
         style="text-align:center;text-anchor:middle"
         id="path7040" />
      <path
         d="m 86.830914,6.395894 v 0.3851616 q -0.174666,-0.09629 -0.351572,-0.1433159 -0.174666,-0.049265 -0.353811,-0.049265 -0.400837,0 -0.622528,0.2552815 -0.221692,0.2530422 -0.221692,0.7121011 0,0.4590589 0.221692,0.7143404 0.221691,0.2530422 0.622528,0.2530422 0.179145,0 0.353811,-0.047026 0.176906,-0.049265 0.351572,-0.1455553 v 0.380683 q -0.172427,0.080615 -0.35829,0.1209228 -0.183623,0.040308 -0.391879,0.040308 -0.566546,0 -0.900203,-0.3560505 -0.333658,-0.3560506 -0.333658,-0.9606647 0,-0.6135714 0.335897,-0.9651433 0.338136,-0.3515719 0.924836,-0.3515719 0.190341,0 0.371725,0.040308 0.181385,0.038068 0.351572,0.116444 z"
         style="text-align:center;text-anchor:middle"
         id="path7042" />
      <path
         d="m 87.551973,5.3232638 h 0.412033 v 3.4843688 h -0.412033 z"
         style="text-align:center;text-anchor:middle"
         id="path7044" />
      <path
         d="m 90.969162,7.4506098 v 0.201538 h -1.894457 q 0.02687,0.4254692 0.255281,0.6494004 0.230649,0.2216918 0.640443,0.2216918 0.237367,0 0.459059,-0.058222 0.223931,-0.058222 0.443384,-0.1746663 v 0.3896402 q -0.221692,0.094051 -0.45458,0.143316 -0.232889,0.049265 -0.472495,0.049265 -0.600136,0 -0.951708,-0.3493326 -0.349332,-0.3493326 -0.349332,-0.9449895 0,-0.6158107 0.331418,-0.9763398 0.333657,-0.3627685 0.897964,-0.3627685 0.506084,0 0.799434,0.3269395 0.295589,0.3247002 0.295589,0.8845278 z M 90.557129,7.3296869 q -0.0045,-0.338136 -0.190342,-0.5396741 -0.183623,-0.201538 -0.48817,-0.201538 -0.344854,0 -0.553109,0.1948201 -0.206017,0.1948201 -0.237368,0.5486314 z"
         style="text-align:center;text-anchor:middle"
         id="path7046" />
      <path
         d="m 72.145509,12.321112 q -0.331418,0 -0.523999,0.25976 -0.192581,0.257521 -0.192581,0.707623 0,0.450101 0.190341,0.709862 0.192581,0.25752 0.526239,0.25752 0.329179,0 0.521759,-0.25976 0.192581,-0.25976 0.192581,-0.707622 0,-0.445623 -0.192581,-0.705383 -0.19258,-0.262 -0.521759,-0.262 z m 0,-0.349332 q 0.537434,0 0.84422,0.349332 0.306786,0.349333 0.306786,0.967383 0,0.61581 -0.306786,0.967382 -0.306786,0.349333 -0.84422,0.349333 -0.539674,0 -0.84646,-0.349333 -0.304546,-0.351572 -0.304546,-0.967382 0,-0.61805 0.304546,-0.967383 0.306786,-0.349332 0.84646,-0.349332 z"
         style="text-align:center;text-anchor:middle"
         id="path7048" />
      <path
         d="m 75.430579,12.417403 q -0.06942,-0.04031 -0.152273,-0.05822 -0.08061,-0.02015 -0.179145,-0.02015 -0.349333,0 -0.537435,0.228409 -0.185863,0.226171 -0.185863,0.65164 v 1.321194 h -0.414272 v -2.508029 h 0.414272 v 0.38964 q 0.12988,-0.22841 0.338136,-0.338136 0.208256,-0.111965 0.506085,-0.111965 0.04255,0 0.09405,0.0067 0.0515,0.0045 0.114205,0.01567 z"
         style="text-align:center;text-anchor:middle"
         id="path7050" />
      <path
         d="m 75.867245,12.032241 h 0.412033 v 2.508029 h -0.412033 z m 0,-0.97634 h 0.412033 v 0.52176 h -0.412033 z"
         style="text-align:center;text-anchor:middle"
         id="path7052" />
      <path
         d="m 79.284434,13.183247 v 0.201538 h -1.894458 q 0.02687,0.425469 0.255282,0.649401 0.230649,0.221691 0.640443,0.221691 0.237367,0 0.459059,-0.05822 0.223931,-0.05822 0.443384,-0.174666 v 0.38964 q -0.221692,0.09405 -0.454581,0.143316 -0.232888,0.04927 -0.472494,0.04927 -0.600136,0 -0.951708,-0.349333 -0.349332,-0.349332 -0.349332,-0.944989 0,-0.615811 0.331418,-0.97634 0.333657,-0.362768 0.897964,-0.362768 0.506084,0 0.799434,0.326939 0.295589,0.3247 0.295589,0.884528 z m -0.412033,-0.120923 q -0.0045,-0.338136 -0.190342,-0.539674 -0.183623,-0.201538 -0.48817,-0.201538 -0.344854,0 -0.55311,0.19482 -0.206016,0.19482 -0.237367,0.548632 z"
         style="text-align:center;text-anchor:middle"
         id="path7054" />
      <path
         d="m 82.045505,13.026495 v 1.513775 h -0.412034 v -1.500339 q 0,-0.35605 -0.138837,-0.532956 -0.138837,-0.176906 -0.416512,-0.176906 -0.333657,0 -0.526238,0.212735 -0.192581,0.212735 -0.192581,0.579982 v 1.417484 h -0.414272 v -2.508029 h 0.414272 v 0.38964 q 0.147795,-0.22617 0.347093,-0.338136 0.201539,-0.111965 0.463538,-0.111965 0.432187,0 0.653879,0.268717 0.221692,0.266478 0.221692,0.785998 z"
         style="text-align:center;text-anchor:middle"
         id="path7056" />
      <path
         d="m 83.279367,11.32014 v 0.712101 h 0.848699 v 0.320222 h -0.848699 v 1.361501 q 0,0.306786 0.08285,0.394119 0.08509,0.08733 0.342615,0.08733 h 0.42323 v 0.344854 h -0.42323 q -0.476974,0 -0.658358,-0.176906 -0.181384,-0.179145 -0.181384,-0.6494 V 12.35246 H 82.562783 V 12.032238 H 82.86509 V 11.32014 Z"
         style="text-align:center;text-anchor:middle"
         id="path7058" />
      <path
         d="m 85.812027,13.279538 q -0.499367,0 -0.691947,0.114204 -0.192581,0.114205 -0.192581,0.389641 0,0.219452 0.143316,0.349332 0.145555,0.127641 0.394119,0.127641 0.342614,0 0.548631,-0.241846 0.208256,-0.244085 0.208256,-0.647161 v -0.09181 z m 0.821827,-0.170188 v 1.43092 h -0.412033 v -0.380683 q -0.141077,0.22841 -0.351572,0.338136 -0.210495,0.107487 -0.515042,0.107487 -0.385161,0 -0.613571,-0.214974 -0.22617,-0.217213 -0.22617,-0.579982 0,-0.423229 0.282153,-0.638203 0.284392,-0.214974 0.84646,-0.214974 h 0.577742 v -0.04031 q 0,-0.284392 -0.188102,-0.438905 -0.185863,-0.156752 -0.523999,-0.156752 -0.214974,0 -0.418751,0.0515 -0.203778,0.0515 -0.39188,0.154513 V 12.14644 q 0.226171,-0.08733 0.438905,-0.12988 0.212735,-0.04479 0.414273,-0.04479 0.544153,0 0.81287,0.282153 0.268717,0.282153 0.268717,0.855417 z"
         style="text-align:center;text-anchor:middle"
         id="path7060" />
      <path
         d="m 87.892348,11.32014 v 0.712101 h 0.848699 v 0.320222 h -0.848699 v 1.361501 q 0,0.306786 0.08285,0.394119 0.08509,0.08733 0.342615,0.08733 h 0.423229 v 0.344854 h -0.423229 q -0.476974,0 -0.658358,-0.176906 -0.181384,-0.179145 -0.181384,-0.6494 V 12.35246 h -0.302307 v -0.320222 h 0.302307 V 11.32014 Z"
         style="text-align:center;text-anchor:middle"
         id="path7062" />
      <path
         d="m 89.285199,12.032241 h 0.412033 v 2.508029 h -0.412033 z m 0,-0.97634 h 0.412033 v 0.52176 h -0.412033 z"
         style="text-align:center;text-anchor:middle"
         id="path7064" />
      <path
         d="m 91.528989,12.321112 q -0.331418,0 -0.523999,0.25976 -0.192581,0.257521 -0.192581,0.707623 0,0.450101 0.190342,0.709862 0.192581,0.25752 0.526238,0.25752 0.329179,0 0.52176,-0.25976 0.192581,-0.25976 0.192581,-0.707622 0,-0.445623 -0.192581,-0.705383 -0.192581,-0.262 -0.52176,-0.262 z m 0,-0.349332 q 0.537435,0 0.844221,0.349332 0.306785,0.349333 0.306785,0.967383 0,0.61581 -0.306785,0.967382 -0.306786,0.349333 -0.844221,0.349333 -0.539674,0 -0.84646,-0.349333 -0.304546,-0.351572 -0.304546,-0.967382 0,-0.61805 0.304546,-0.967383 0.306786,-0.349332 0.84646,-0.349332 z"
         style="text-align:center;text-anchor:middle"
         id="path7066" />
      <path
         d="m 95.445546,13.026495 v 1.513775 h -0.412033 v -1.500339 q 0,-0.35605 -0.138837,-0.532956 -0.138838,-0.176906 -0.416512,-0.176906 -0.333658,0 -0.526238,0.212735 -0.192581,0.212735 -0.192581,0.579982 v 1.417484 h -0.414273 v -2.508029 h 0.414273 v 0.38964 q 0.147794,-0.22617 0.347093,-0.338136 0.201538,-0.111965 0.463538,-0.111965 0.432187,0 0.653879,0.268717 0.221691,0.266478 0.221691,0.785998 z"
         style="text-align:center;text-anchor:middle"
         id="path7068" />
      <path
         d="m 68.665619,16.793017 q -0.300068,0.515042 -0.445623,1.018887 -0.145556,0.503845 -0.145556,1.021126 0,0.517281 0.145556,1.025605 0.147794,0.506084 0.445623,1.018887 h -0.35829 q -0.335897,-0.526239 -0.503845,-1.034562 -0.165709,-0.508324 -0.165709,-1.00993 0,-0.499366 0.165709,-1.005451 0.165709,-0.506084 0.503845,-1.034562 z"
         style="text-align:center;text-anchor:middle"
         id="path7070" />
      <path
         d="m 71.272177,17.861169 v 0.385161 q -0.174666,-0.09629 -0.351572,-0.143316 -0.174666,-0.04926 -0.353811,-0.04926 -0.400837,0 -0.622529,0.255281 -0.221691,0.253042 -0.221691,0.712101 0,0.459059 0.221691,0.714341 0.221692,0.253042 0.622529,0.253042 0.179145,0 0.353811,-0.04703 0.176906,-0.04927 0.351572,-0.145555 v 0.380683 q -0.172427,0.08061 -0.35829,0.120923 -0.183623,0.04031 -0.391879,0.04031 -0.566546,0 -0.900203,-0.35605 -0.333658,-0.356051 -0.333658,-0.960665 0,-0.613571 0.335897,-0.965143 0.338136,-0.351572 0.924836,-0.351572 0.190341,0 0.371725,0.04031 0.181385,0.03807 0.351572,0.116444 z"
         style="text-align:center;text-anchor:middle"
         id="path7072" />
      <path
         d="m 72.965097,18.05375 q -0.331418,0 -0.523999,0.25976 -0.192581,0.257521 -0.192581,0.707622 0,0.450102 0.190342,0.709862 0.19258,0.257521 0.526238,0.257521 0.329179,0 0.521759,-0.25976 0.192581,-0.25976 0.192581,-0.707623 0,-0.445623 -0.192581,-0.705383 -0.19258,-0.261999 -0.521759,-0.261999 z m 0,-0.349333 q 0.537435,0 0.84422,0.349333 0.306786,0.349332 0.306786,0.967382 0,0.615811 -0.306786,0.967383 -0.306785,0.349332 -0.84422,0.349332 -0.539674,0 -0.84646,-0.349332 -0.304546,-0.351572 -0.304546,-0.967383 0,-0.61805 0.304546,-0.967382 0.306786,-0.349333 0.84646,-0.349333 z"
         style="text-align:center;text-anchor:middle"
         id="path7074" />
      <path
         d="m 76.881653,18.759133 v 1.513774 h -0.412034 v -1.500338 q 0,-0.356051 -0.138837,-0.532957 -0.138837,-0.176905 -0.416512,-0.176905 -0.333657,0 -0.526238,0.212734 -0.192581,0.212735 -0.192581,0.579982 v 1.417484 h -0.414273 v -2.508029 h 0.414273 v 0.389641 q 0.147795,-0.226171 0.347093,-0.338136 0.201538,-0.111966 0.463538,-0.111966 0.432187,0 0.653879,0.268717 0.221692,0.266478 0.221692,0.785999 z"
         style="text-align:center;text-anchor:middle"
         id="path7076" />
      <path
         d="m 79.306827,17.838776 v 0.38964 q -0.174666,-0.08957 -0.362768,-0.134359 -0.188102,-0.04479 -0.38964,-0.04479 -0.306786,0 -0.461299,0.09405 -0.152273,0.09405 -0.152273,0.282153 0,0.143316 0.109726,0.226171 0.109727,0.08062 0.441145,0.154512 l 0.141076,0.03135 q 0.438905,0.09405 0.622529,0.266478 0.185863,0.170187 0.185863,0.476973 0,0.349333 -0.277675,0.55311 -0.275435,0.203777 -0.759126,0.203777 -0.201538,0 -0.420991,-0.04031 -0.217213,-0.03807 -0.459059,-0.116444 v -0.42547 q 0.22841,0.118684 0.450102,0.179145 0.221692,0.05822 0.438905,0.05822 0.29111,0 0.447862,-0.09853 0.156752,-0.100769 0.156752,-0.282154 0,-0.167948 -0.114205,-0.25752 -0.111965,-0.08957 -0.494888,-0.172427 l -0.143316,-0.03359 q -0.382922,-0.0806 -0.55311,-0.246312 Q 77.54225,18.7345 77.54225,18.44339 q 0,-0.353811 0.250803,-0.546392 0.250802,-0.192581 0.712101,-0.192581 0.228409,0 0.429947,0.03359 0.201539,0.03359 0.371726,0.100769 z"
         style="text-align:center;text-anchor:middle"
         id="path7078" />
      <path
         d="m 80.507099,17.052777 v 0.712101 h 0.848699 V 18.0851 h -0.848699 v 1.361501 q 0,0.306786 0.08285,0.394119 0.08509,0.08733 0.342615,0.08733 h 0.42323 v 0.344854 h -0.42323 q -0.476973,0 -0.658358,-0.176905 -0.181384,-0.179145 -0.181384,-0.649401 V 18.0851 h -0.302307 v -0.320222 h 0.302307 v -0.712101 z"
         style="text-align:center;text-anchor:middle"
         id="path7080" />
      <path
         d="m 83.353264,18.15004 q -0.06942,-0.04031 -0.152273,-0.05822 -0.08062,-0.02015 -0.179145,-0.02015 -0.349333,0 -0.537435,0.22841 -0.185863,0.22617 -0.185863,0.65164 v 1.321193 h -0.414273 v -2.508029 h 0.414273 v 0.389641 q 0.12988,-0.22841 0.338136,-0.338136 0.208256,-0.111966 0.506084,-0.111966 0.04255,0 0.09405,0.0067 0.0515,0.0045 0.114204,0.01568 z"
         style="text-align:center;text-anchor:middle"
         id="path7082" />
      <path
         d="m 84.929739,19.012175 q -0.499367,0 -0.691948,0.114205 -0.192581,0.114205 -0.192581,0.38964 0,0.219453 0.143316,0.349333 0.145556,0.12764 0.394119,0.12764 0.342615,0 0.548632,-0.241845 0.208256,-0.244085 0.208256,-0.647161 v -0.09181 z m 0.821827,-0.170188 v 1.43092 h -0.412033 v -0.380683 q -0.141077,0.22841 -0.351572,0.338136 -0.210496,0.107487 -0.515042,0.107487 -0.385162,0 -0.613571,-0.214973 -0.226171,-0.217214 -0.226171,-0.579982 0,-0.42323 0.282153,-0.638204 0.284393,-0.214974 0.84646,-0.214974 h 0.577743 v -0.04031 q 0,-0.284392 -0.188103,-0.438905 -0.185862,-0.156751 -0.523999,-0.156751 -0.214973,0 -0.418751,0.0515 -0.203777,0.0515 -0.391879,0.154512 v -0.380683 q 0.22617,-0.08733 0.438905,-0.12988 0.212734,-0.04479 0.414272,-0.04479 0.544153,0 0.812871,0.282153 0.268717,0.282154 0.268717,0.855417 z"
         style="text-align:center;text-anchor:middle"
         id="path7084" />
      <path
         d="m 86.602505,17.764878 h 0.412034 v 2.508029 h -0.412034 z m 0,-0.976339 h 0.412034 v 0.521759 h -0.412034 z"
         style="text-align:center;text-anchor:middle"
         id="path7086" />
      <path
         d="m 89.959233,18.759133 v 1.513774 H 89.5472 v -1.500338 q 0,-0.356051 -0.138838,-0.532957 -0.138837,-0.176905 -0.416511,-0.176905 -0.333658,0 -0.526239,0.212734 -0.192581,0.212735 -0.192581,0.579982 v 1.417484 h -0.414272 v -2.508029 h 0.414272 v 0.389641 q 0.147795,-0.226171 0.347094,-0.338136 0.201538,-0.111966 0.463537,-0.111966 0.432187,0 0.653879,0.268717 0.221692,0.266478 0.221692,0.785999 z"
         style="text-align:center;text-anchor:middle"
         id="path7088" />
      <path
         d="m 92.930799,18.915885 v 0.201538 h -1.894458 q 0.02687,0.425469 0.255282,0.6494 0.230649,0.221692 0.640443,0.221692 0.237367,0 0.459059,-0.05822 0.223931,-0.05822 0.443383,-0.174667 v 0.389641 q -0.221692,0.09405 -0.45458,0.143316 -0.232888,0.04926 -0.472495,0.04926 -0.600135,0 -0.951707,-0.349332 -0.349333,-0.349333 -0.349333,-0.94499 0,-0.61581 0.331418,-0.97634 0.333658,-0.362768 0.897964,-0.362768 0.506085,0 0.799435,0.32694 0.295589,0.3247 0.295589,0.884528 z m -0.412034,-0.120923 q -0.0045,-0.338136 -0.190341,-0.539674 -0.183624,-0.201538 -0.48817,-0.201538 -0.344854,0 -0.55311,0.19482 -0.206017,0.19482 -0.237367,0.548631 z"
         style="text-align:center;text-anchor:middle"
         id="path7090" />
      <path
         d="m 95.257444,18.145561 v -1.357022 h 0.412033 v 3.484368 h -0.412033 v -0.376204 q -0.12988,0.223931 -0.329179,0.333657 -0.197059,0.107487 -0.474734,0.107487 -0.45458,0 -0.741212,-0.362768 -0.284392,-0.362769 -0.284392,-0.953947 0,-0.591178 0.284392,-0.953947 0.286632,-0.362768 0.741212,-0.362768 0.277675,0 0.474734,0.109726 0.199299,0.107487 0.329179,0.331418 z m -1.404048,0.875571 q 0,0.45458 0.185863,0.714341 0.188102,0.25752 0.515041,0.25752 0.32694,0 0.515042,-0.25752 0.188102,-0.259761 0.188102,-0.714341 0,-0.45458 -0.188102,-0.712101 -0.188102,-0.25976 -0.515042,-0.25976 -0.326939,0 -0.515041,0.25976 -0.185863,0.257521 -0.185863,0.712101 z"
         style="text-align:center;text-anchor:middle"
         id="path7092" />
      <path
         d="m 96.453236,16.793017 h 0.358289 q 0.335897,0.528478 0.501606,1.034562 0.167949,0.506085 0.167949,1.005451 0,0.501606 -0.167949,1.00993 -0.165709,0.508323 -0.501606,1.034562 h -0.358289 q 0.297828,-0.512803 0.443383,-1.018887 0.147795,-0.508324 0.147795,-1.025605 0,-0.517281 -0.147795,-1.021126 -0.145555,-0.503845 -0.443383,-1.018887 z"
         style="text-align:center;text-anchor:middle"
         id="path7094" />
    </g>
    <text
       xml:space="preserve"
       id="text6823"
       style="font-style:normal;font-weight:normal;font-size:3.88056px;line-height:1.25;font-family:sans-serif;letter-spacing:0px;word-spacing:0px;white-space:pre;shape-inside:url(#rect6825);fill:#000000;fill-opacity:1;stroke:none;" />
    <g
       aria-label="manifold 
(e.g. membrane)"
       transform="translate(-9.8283841,8.1794337)"
       id="text7134"
       style="font-style:normal;font-weight:normal;font-size:4.58611px;line-height:1.25;font-family:sans-serif;letter-spacing:0px;word-spacing:0px;white-space:pre;shape-inside:url(#rect7136);fill:#000000;fill-opacity:1;stroke:none">
      <path
         d="m 55.913751,55.261524 q 0.154513,-0.277674 0.369486,-0.409794 0.214974,-0.132119 0.506085,-0.132119 0.391879,0 0.604614,0.275435 0.212735,0.273196 0.212735,0.779281 v 1.513774 h -0.414273 v -1.500338 q 0,-0.36053 -0.127641,-0.535196 -0.127641,-0.174666 -0.38964,-0.174666 -0.320222,0 -0.506084,0.212734 -0.185863,0.212735 -0.185863,0.579982 v 1.417484 h -0.414273 v -1.500338 q 0,-0.362769 -0.127641,-0.535196 -0.12764,-0.174666 -0.394119,-0.174666 -0.315743,0 -0.501605,0.214974 -0.185863,0.212734 -0.185863,0.577742 v 1.417484 h -0.414273 v -2.508029 h 0.414273 v 0.389641 q 0.141076,-0.23065 0.338136,-0.340376 0.197059,-0.109726 0.468016,-0.109726 0.273196,0 0.463537,0.138837 0.192581,0.138838 0.284393,0.403076 z"
         style="font-size:4.58611px;text-align:center;text-anchor:middle"
         id="path7140" />
      <path
         d="m 59.570547,56.027369 q -0.499367,0 -0.691947,0.114205 -0.192581,0.114205 -0.192581,0.38964 0,0.219453 0.143316,0.349333 0.145555,0.12764 0.394119,0.12764 0.342614,0 0.548631,-0.241845 0.208256,-0.244085 0.208256,-0.647161 v -0.09181 z m 0.821827,-0.170188 v 1.43092 h -0.412033 v -0.380683 q -0.141077,0.22841 -0.351572,0.338136 -0.210495,0.107487 -0.515042,0.107487 -0.385161,0 -0.613571,-0.214974 -0.22617,-0.217213 -0.22617,-0.579981 0,-0.42323 0.282153,-0.638204 0.284392,-0.214974 0.84646,-0.214974 h 0.577742 V 55.6646 q 0,-0.284392 -0.188102,-0.438905 -0.185863,-0.156751 -0.523999,-0.156751 -0.214974,0 -0.418751,0.0515 -0.203778,0.0515 -0.39188,0.154512 v -0.380683 q 0.226171,-0.08733 0.438905,-0.12988 0.212735,-0.04479 0.414273,-0.04479 0.544152,0 0.81287,0.282153 0.268717,0.282153 0.268717,0.855417 z"
         style="font-size:4.58611px;text-align:center;text-anchor:middle"
         id="path7142" />
      <path
         d="m 63.328112,55.774327 v 1.513774 h -0.412034 v -1.500338 q 0,-0.356051 -0.138837,-0.532957 -0.138837,-0.176905 -0.416512,-0.176905 -0.333657,0 -0.526238,0.212734 -0.192581,0.212735 -0.192581,0.579982 v 1.417484 h -0.414273 v -2.508029 h 0.414273 v 0.389641 q 0.147795,-0.226171 0.347093,-0.338136 0.201538,-0.111966 0.463538,-0.111966 0.432187,0 0.653879,0.268717 0.221692,0.266478 0.221692,0.785999 z"
         style="font-size:4.58611px;text-align:center;text-anchor:middle"
         id="path7144" />
      <path
         d="m 64.154417,54.780072 h 0.412034 v 2.508029 h -0.412034 z m 0,-0.976339 h 0.412034 v 0.521759 h -0.412034 z"
         style="font-size:4.58611px;text-align:center;text-anchor:middle"
         id="path7146" />
      <path
         d="m 66.696037,53.803733 v 0.342614 h -0.394119 q -0.221692,0 -0.309025,0.08957 -0.08509,0.08957 -0.08509,0.322461 v 0.221691 h 0.678511 v 0.320222 h -0.678511 v 2.187807 H 65.49353 v -2.187807 h -0.394118 v -0.320222 h 0.394118 v -0.174666 q 0,-0.418751 0.194821,-0.609093 0.19482,-0.19258 0.61805,-0.19258 z"
         style="font-size:4.58611px;text-align:center;text-anchor:middle"
         id="path7148" />
      <path
         d="m 68.010512,55.068944 q -0.331418,0 -0.523999,0.25976 -0.192581,0.257521 -0.192581,0.707622 0,0.450102 0.190342,0.709862 0.192581,0.257521 0.526238,0.257521 0.329179,0 0.52176,-0.25976 0.19258,-0.259761 0.19258,-0.707623 0,-0.445623 -0.19258,-0.705383 -0.192581,-0.261999 -0.52176,-0.261999 z m 0,-0.349333 q 0.537435,0 0.84422,0.349333 0.306786,0.349332 0.306786,0.967382 0,0.615811 -0.306786,0.967383 -0.306785,0.349332 -0.84422,0.349332 -0.539674,0 -0.84646,-0.349332 -0.304546,-0.351572 -0.304546,-0.967383 0,-0.61805 0.304546,-0.967382 0.306786,-0.349333 0.84646,-0.349333 z"
         style="font-size:4.58611px;text-align:center;text-anchor:middle"
         id="path7150" />
      <path
         d="m 69.842269,53.803733 h 0.412034 v 3.484368 h -0.412034 z"
         style="font-size:4.58611px;text-align:center;text-anchor:middle"
         id="path7152" />
      <path
         d="m 72.764572,55.160755 v -1.357022 h 0.412033 v 3.484368 h -0.412033 v -0.376204 q -0.12988,0.223931 -0.329179,0.333657 -0.19706,0.107487 -0.474734,0.107487 -0.45458,0 -0.741212,-0.362768 -0.284393,-0.362769 -0.284393,-0.953947 0,-0.591178 0.284393,-0.953947 0.286632,-0.362768 0.741212,-0.362768 0.277674,0 0.474734,0.109726 0.199299,0.107487 0.329179,0.331418 z m -1.404049,0.875571 q 0,0.45458 0.185863,0.714341 0.188102,0.25752 0.515042,0.25752 0.326939,0 0.515041,-0.25752 0.188103,-0.259761 0.188103,-0.714341 0,-0.45458 -0.188103,-0.712101 -0.188102,-0.25976 -0.515041,-0.25976 -0.32694,0 -0.515042,0.25976 -0.185863,0.257521 -0.185863,0.712101 z"
         style="font-size:4.58611px;text-align:center;text-anchor:middle"
         id="path7154" />
      <path
         d="m 46.311583,59.540847 q -0.300068,0.515041 -0.445623,1.018886 -0.145555,0.503846 -0.145555,1.021126 0,0.517281 0.145555,1.025605 0.147795,0.506085 0.445623,1.018887 h -0.35829 q -0.335897,-0.526238 -0.503845,-1.034562 -0.165709,-0.508324 -0.165709,-1.00993 0,-0.499366 0.165709,-1.00545 0.165709,-0.506085 0.503845,-1.034562 z"
         style="font-size:4.58611px;text-align:center;text-anchor:middle"
         id="path7156" />
      <path
         d="m 49.258517,61.663714 v 0.201538 h -1.894458 q 0.02687,0.425469 0.255282,0.6494 0.230649,0.221692 0.640443,0.221692 0.237367,0 0.459059,-0.05822 0.223931,-0.05822 0.443384,-0.174666 v 0.38964 q -0.221692,0.09405 -0.454581,0.143316 -0.232888,0.04926 -0.472494,0.04926 -0.600136,0 -0.951708,-0.349333 -0.349332,-0.349332 -0.349332,-0.944989 0,-0.615811 0.331418,-0.97634 0.333657,-0.362769 0.897964,-0.362769 0.506084,0 0.799434,0.32694 0.295589,0.3247 0.295589,0.884528 z m -0.412033,-0.120923 q -0.0045,-0.338136 -0.190342,-0.539674 -0.183623,-0.201538 -0.48817,-0.201538 -0.344854,0 -0.55311,0.19482 -0.206016,0.19482 -0.237367,0.548631 z"
         style="font-size:4.58611px;text-align:center;text-anchor:middle"
         id="path7158" />
      <path
         d="m 49.993011,62.451952 h 0.472495 v 0.568785 h -0.472495 z"
         style="font-size:4.58611px;text-align:center;text-anchor:middle"
         id="path7160" />
      <path
         d="m 53.045193,61.737611 q 0,-0.447862 -0.185863,-0.694186 -0.183624,-0.246325 -0.517281,-0.246325 -0.331418,0 -0.517281,0.246325 -0.183624,0.246324 -0.183624,0.694186 0,0.445623 0.183624,0.691948 0.185863,0.246324 0.517281,0.246324 0.333657,0 0.517281,-0.246324 0.185863,-0.246325 0.185863,-0.691948 z m 0.412033,0.971862 q 0,0.640443 -0.284393,0.951707 -0.284392,0.313504 -0.871092,0.313504 -0.217213,0 -0.409794,-0.03359 -0.192581,-0.03135 -0.373965,-0.09853 v -0.400837 q 0.181384,0.09853 0.35829,0.145556 0.176906,0.04702 0.360529,0.04702 0.405316,0 0.606854,-0.212734 0.201538,-0.210496 0.201538,-0.638204 v -0.203778 q -0.127641,0.221692 -0.32694,0.331419 -0.199299,0.109726 -0.476973,0.109726 -0.461298,0 -0.743452,-0.351572 -0.282153,-0.351572 -0.282153,-0.931554 0,-0.582221 0.282153,-0.933793 0.282154,-0.351572 0.743452,-0.351572 0.277674,0 0.476973,0.109727 0.199299,0.109726 0.32694,0.331418 v -0.380683 h 0.412033 z"
         style="font-size:4.58611px;text-align:center;text-anchor:middle"
         id="path7162" />
      <path
         d="m 54.364148,62.451952 h 0.472495 v 0.568785 h -0.472495 z"
         style="font-size:4.58611px;text-align:center;text-anchor:middle"
         id="path7164" />
      <path
         d="m 59.178667,60.99416 q 0.154513,-0.277675 0.369487,-0.409794 0.214974,-0.13212 0.506084,-0.13212 0.39188,0 0.604614,0.275436 0.212735,0.273196 0.212735,0.77928 v 1.513775 h -0.414273 v -1.500339 q 0,-0.360529 -0.12764,-0.535195 -0.127641,-0.174667 -0.389641,-0.174667 -0.320221,0 -0.506084,0.212735 -0.185863,0.212735 -0.185863,0.579982 v 1.417484 h -0.414273 v -1.500339 q 0,-0.362768 -0.12764,-0.535195 -0.127641,-0.174667 -0.394119,-0.174667 -0.315743,0 -0.501606,0.214974 -0.185863,0.212735 -0.185863,0.577743 v 1.417484 h -0.414272 v -2.508029 h 0.414272 v 0.38964 q 0.141077,-0.230649 0.338136,-0.340375 0.19706,-0.109727 0.468016,-0.109727 0.273196,0 0.463538,0.138838 0.192581,0.138837 0.284392,0.403076 z"
         style="font-size:4.58611px;text-align:center;text-anchor:middle"
         id="path7166" />
      <path
         d="m 63.840914,61.663714 v 0.201538 h -1.894458 q 0.02687,0.425469 0.255282,0.6494 0.230649,0.221692 0.640443,0.221692 0.237367,0 0.459059,-0.05822 0.223931,-0.05822 0.443383,-0.174666 v 0.38964 q -0.221691,0.09405 -0.45458,0.143316 -0.232888,0.04926 -0.472495,0.04926 -0.600135,0 -0.951707,-0.349333 -0.349333,-0.349332 -0.349333,-0.944989 0,-0.615811 0.331418,-0.97634 0.333658,-0.362769 0.897964,-0.362769 0.506085,0 0.799435,0.32694 0.295589,0.3247 0.295589,0.884528 z M 63.42888,61.542791 q -0.0045,-0.338136 -0.190341,-0.539674 -0.183624,-0.201538 -0.48817,-0.201538 -0.344854,0 -0.55311,0.19482 -0.206017,0.19482 -0.237367,0.548631 z"
         style="font-size:4.58611px;text-align:center;text-anchor:middle"
         id="path7168" />
      <path
         d="m 66.469866,60.99416 q 0.154513,-0.277675 0.369487,-0.409794 0.214974,-0.13212 0.506084,-0.13212 0.39188,0 0.604614,0.275436 0.212735,0.273196 0.212735,0.77928 v 1.513775 h -0.414273 v -1.500339 q 0,-0.360529 -0.127641,-0.535195 -0.12764,-0.174667 -0.38964,-0.174667 -0.320221,0 -0.506084,0.212735 -0.185863,0.212735 -0.185863,0.579982 v 1.417484 h -0.414273 v -1.500339 q 0,-0.362768 -0.127641,-0.535195 -0.12764,-0.174667 -0.394118,-0.174667 -0.315743,0 -0.501606,0.214974 -0.185863,0.212735 -0.185863,0.577743 v 1.417484 h -0.414273 v -2.508029 h 0.414273 v 0.38964 q 0.141077,-0.230649 0.338136,-0.340375 0.197059,-0.109727 0.468016,-0.109727 0.273196,0 0.463538,0.138838 0.19258,0.138837 0.284392,0.403076 z"
         style="font-size:4.58611px;text-align:center;text-anchor:middle"
         id="path7170" />
      <path
         d="m 70.787259,61.768962 q 0,-0.454581 -0.188103,-0.712101 -0.185863,-0.259761 -0.512802,-0.259761 -0.326939,0 -0.515042,0.259761 -0.185863,0.25752 -0.185863,0.712101 0,0.45458 0.185863,0.71434 0.188103,0.257521 0.515042,0.257521 0.326939,0 0.512802,-0.257521 0.188103,-0.25976 0.188103,-0.71434 z m -1.40181,-0.875571 q 0.129881,-0.223931 0.32694,-0.331418 0.199299,-0.109727 0.474734,-0.109727 0.45682,0 0.741212,0.362769 0.286632,0.362768 0.286632,0.953947 0,0.591178 -0.286632,0.953946 -0.284392,0.362769 -0.741212,0.362769 -0.275435,0 -0.474734,-0.107487 -0.197059,-0.109726 -0.32694,-0.333658 v 0.376205 h -0.414272 v -3.484369 h 0.414272 z"
         style="font-size:4.58611px;text-align:center;text-anchor:middle"
         id="path7172" />
      <path
         d="m 73.351271,60.897869 q -0.06942,-0.04031 -0.152273,-0.05822 -0.08062,-0.02015 -0.179145,-0.02015 -0.349332,0 -0.537435,0.228409 -0.185862,0.226171 -0.185862,0.65164 v 1.321194 h -0.414273 v -2.508029 h 0.414273 v 0.38964 q 0.12988,-0.22841 0.338136,-0.338136 0.208256,-0.111966 0.506084,-0.111966 0.04255,0 0.09405,0.0067 0.0515,0.0045 0.114205,0.01568 z"
         style="font-size:4.58611px;text-align:center;text-anchor:middle"
         id="path7174" />
      <path
         d="m 74.927746,61.760004 q -0.499366,0 -0.691947,0.114205 -0.192581,0.114205 -0.192581,0.389641 0,0.219452 0.143316,0.349332 0.145555,0.127641 0.394119,0.127641 0.342615,0 0.548631,-0.241846 0.208256,-0.244085 0.208256,-0.647161 v -0.09181 z m 0.821827,-0.170187 v 1.43092 H 75.33754 v -0.380683 q -0.141076,0.22841 -0.351572,0.338136 -0.210495,0.107487 -0.515041,0.107487 -0.385162,0 -0.613572,-0.214974 -0.22617,-0.217213 -0.22617,-0.579982 0,-0.42323 0.282153,-0.638204 0.284393,-0.214973 0.84646,-0.214973 h 0.577742 v -0.04031 q 0,-0.284393 -0.188102,-0.438905 -0.185863,-0.156752 -0.523999,-0.156752 -0.214974,0 -0.418751,0.0515 -0.203778,0.0515 -0.39188,0.154513 v -0.380683 q 0.226171,-0.08733 0.438905,-0.12988 0.212735,-0.04479 0.414273,-0.04479 0.544153,0 0.81287,0.282154 0.268717,0.282153 0.268717,0.855417 z"
         style="font-size:4.58611px;text-align:center;text-anchor:middle"
         id="path7176" />
      <path
         d="m 78.68531,61.506962 v 1.513775 h -0.412033 v -1.500339 q 0,-0.35605 -0.138838,-0.532956 -0.138837,-0.176906 -0.416512,-0.176906 -0.333657,0 -0.526238,0.212735 -0.192581,0.212735 -0.192581,0.579982 v 1.417484 h -0.414272 v -2.508029 h 0.414272 v 0.38964 q 0.147795,-0.22617 0.347094,-0.338136 0.201538,-0.111966 0.463537,-0.111966 0.432187,0 0.653879,0.268718 0.221692,0.266478 0.221692,0.785998 z"
         style="font-size:4.58611px;text-align:center;text-anchor:middle"
         id="path7178" />
      <path
         d="m 81.656876,61.663714 v 0.201538 h -1.894458 q 0.02687,0.425469 0.255282,0.6494 0.230649,0.221692 0.640443,0.221692 0.237367,0 0.459059,-0.05822 0.223931,-0.05822 0.443383,-0.174666 v 0.38964 q -0.221692,0.09405 -0.45458,0.143316 -0.232888,0.04926 -0.472495,0.04926 -0.600135,0 -0.951707,-0.349333 -0.349333,-0.349332 -0.349333,-0.944989 0,-0.615811 0.331418,-0.97634 0.333658,-0.362769 0.897964,-0.362769 0.506085,0 0.799434,0.32694 0.29559,0.3247 0.29559,0.884528 z m -0.412034,-0.120923 q -0.0045,-0.338136 -0.190341,-0.539674 -0.183624,-0.201538 -0.48817,-0.201538 -0.344854,0 -0.55311,0.19482 -0.206017,0.19482 -0.237367,0.548631 z"
         style="font-size:4.58611px;text-align:center;text-anchor:middle"
         id="path7180" />
      <path
         d="m 82.268208,59.540847 h 0.35829 q 0.335897,0.528477 0.501606,1.034562 0.167948,0.506084 0.167948,1.00545 0,0.501606 -0.167948,1.00993 -0.165709,0.508324 -0.501606,1.034562 h -0.35829 q 0.297829,-0.512802 0.443384,-1.018887 0.147795,-0.508324 0.147795,-1.025605 0,-0.51728 -0.147795,-1.021126 -0.145555,-0.503845 -0.443384,-1.018886 z"
         style="font-size:4.58611px;text-align:center;text-anchor:middle"
         id="path7182" />
    </g>
  </g>
</svg>
